<mxfile host="app.diagrams.net" modified="2024-04-30T22:49:25.959Z" agent="Mozilla/5.0 (Windows NT 10.0; Win64; x64; rv:122.0) Gecko/20100101 Firefox/122.0" version="24.3.1" etag="2XEuIspvtx5ORZ8XWGje" type="github">
  <diagram name="PÃ¡gina-1" id="_iGEM8OsVjqRBAgx5ViR">
    <mxGraphModel>
      <root>
        <mxCell id="0" />
        <mxCell id="1" parent="0" />
      </root>
    </mxGraphModel>
  </diagram>
</mxfile>
